<svg id="word3" xmlns="http://www.w3.org/2000/svg" viewBox="0 0 195.73 75.51"><defs><style>.cls-1{fill:#231f20;}</style></defs><title>LogoLogo Archipelogic</title><path class="cls-1" d="M343.11,236.07c-4.31,1.17-8.3,2.91-12.89,2.85-.86,1.68-.88,3.51-1.33,5.19-1.19,6.13-9.43,4.88-10.12-1.28,0-16.93,10.68-59.06,23.32-69.12,19.55-9.3,14.32,43.45,13.57,53.1-.82,5.64-.27,11.81-2.6,17-1.34,3.59-6.65,3.14-8.07-.65C343.85,240.94,343.9,238.51,343.11,236.07Zm.2-10.9c1.4-6.68,2.38-28.8,1.84-37.75a1,1,0,0,0-1.86-.48c-5.34,11.4-6.54,24.43-10.21,36.55-.2.83-.92,1.72.27,2.88C336.48,225.31,340,225.58,343.31,225.17Z" transform="translate(-318.77 -172.62)"/><path class="cls-1" d="M372.9,211.24a1.88,1.88,0,0,0,2.93,1.32c4.52-3.13,9.56-5.14,15-4.79a4.55,4.55,0,0,1,4.07,4.38,4.28,4.28,0,0,1-3.81,4.67c-5.84,1-13.1,4.36-15.22,8.5-2.83,5.54.56,12.69.15,19-1.17,3.74-5.25,4.55-7.87,1.64a10.69,10.69,0,0,1-2.31-4.39c-2.43-8.93-4.42-17.94-4.23-27.28-.18-3.79,1.36-8.93,5.79-8.71C369.88,205.61,372.4,207.39,372.9,211.24Z" transform="translate(-318.77 -172.62)"/><path class="cls-1" d="M403.67,209.82c2.31.49,3.79,2.58,3.67,5.76a34.19,34.19,0,0,1-1,7.77c-1.47,5.27-1.53,10.61-1.52,16a11.85,11.85,0,0,1-1,5.74,5,5,0,0,1-4.69,3,5,5,0,0,1-4.32-3c-1.15-2.08-.89-4.31-.78-6.53.47-5.47.91-10.95,1.42-16.42a27.51,27.51,0,0,1,2.48-8.65c1.33-3,3.26-4.19,5.72-3.67Zm6.75-12.16a5.61,5.61,0,0,1-7.5,5.12,4.22,4.22,0,0,1-2.41-5.77c.93-2,5.18-4.16,7.31-3.67C409.48,193.72,410.46,195.35,410.42,197.66Z" transform="translate(-318.77 -172.62)"/><path class="cls-1" d="M424.35,234c-3.41,6.23,8.7,3.51,10.83,3.61,1.91-.17,3.68,0,4.48,2.06,1.65,10.26-16.27,8.68-22.41,6.63-11.51-3.6-5.21-14.58.13-20.92,1.61-2.23,4.36-4.75,6.39-7.32a2.06,2.06,0,0,0-2-3.28c-4.1.55-6.48,3.61-9.55.49-5.26-8.52,10.07-12,16.43-9.21C440.85,212,431.56,227.09,424.35,234Z" transform="translate(-318.77 -172.62)"/><path class="cls-1" d="M443.5,228.46a121.06,121.06,0,0,1,4.06-26.89c1.37-4.82,3.92-15.27,5.53-20a14.93,14.93,0,0,1,1.13-2.59,3.14,3.14,0,0,1,3.39-1.73,4.12,4.12,0,0,1,3.31,3,13,13,0,0,1,.6,4.57,167.51,167.51,0,0,1-2.07,18.9c-1.59,8.62-2.18,17.44-3,26.22a13.58,13.58,0,0,0,1.69,8.16c.5.88,1,1.77,1.43,2.67,1.42,2.85,1.22,5-.56,6.36s-4,1.16-6.61-.63C447.26,243,444.09,237.07,443.5,228.46Z" transform="translate(-318.77 -172.62)"/><path class="cls-1" d="M473.66,209.82c2.31.49,3.8,2.58,3.67,5.76a34.18,34.18,0,0,1-1,7.77c-1.48,5.27-1.54,10.61-1.52,16a11.85,11.85,0,0,1-1,5.74,4.93,4.93,0,0,1-4.69,3,5,5,0,0,1-4.31-3c-1.15-2.08-.89-4.31-.78-6.53.46-5.47.9-10.95,1.41-16.42a27.78,27.78,0,0,1,2.48-8.65c1.33-3,3.26-4.19,5.72-3.67Zm6.75-12.16a5.61,5.61,0,0,1-7.5,5.12A4.22,4.22,0,0,1,470.5,197c.94-2,5.18-4.16,7.31-3.67C479.48,193.72,480.46,195.35,480.41,197.66Z" transform="translate(-318.77 -172.62)"/><path class="cls-1" d="M492.5,211.24a1.88,1.88,0,0,0,2.93,1.32c4.52-3.13,9.57-5.14,15-4.79a4.55,4.55,0,0,1,4.07,4.38,4.29,4.29,0,0,1-3.81,4.67c-5.84,1-13.11,4.36-15.22,8.5-2.83,5.54.56,12.69.14,19-1.17,3.74-5.24,4.55-7.87,1.64a10.81,10.81,0,0,1-2.31-4.39c-2.43-8.93-4.41-17.94-4.22-27.28-.19-3.79,1.35-8.93,5.78-8.71C489.48,205.61,492,207.39,492.5,211.24Z" transform="translate(-318.77 -172.62)"/></svg>